# xmcd CD database file
# Copyright (C) 1996 Ti Kan
#
# Track frame offsets:
# 	150
# 	14910
# 	26412
# 	36090
# 	46630
# 	59320
# 	67797
# 	78237
# 	98030
# 	105470
# 	113842
# 	137517
# 	154245
# 	172962
# 	189725
#
# Disc length: 2685 seconds
#
# Revision: 1
# Processed by: cddbd v1.4b41PL1 Copyright (c) Steve Scherf et al.
# Submitted via: DiscPlay 3.3.1
#
DISCID=b50a7b0f
DTITLE=Uncle Tupelo - March 16-20, 1992
DYEAR=1900
DGENRE=
TTITLE0=Grindstone
TTITLE1=Coalminers
TTITLE2=Wait Up
TTITLE3=Criminals
TTITLE4=Shaky Ground
TTITLE5=Satan, Your Kingdom Must Come Down
TTITLE6=Black Eye
TTITLE7=Moonshiner
TTITLE8=I Wish My Baby Was Born
TTITLE9=Atomic Power
TTITLE10=Lilli Schull
TTITLE11=Warfare
TTITLE12=Fatal Wound
TTITLE13=Sandusky
TTITLE14=Wipe the Clock
EXTD=
EXTT0=
EXTT1=
EXTT2=
EXTT3=
EXTT4=
EXTT5=
EXTT6=
EXTT7=
EXTT8=
EXTT9=
EXTT10=
EXTT11=
EXTT12=
EXTT13=
EXTT14=
PLAYORDER=
